<?xml version="1.0" encoding="utf-8"?>
<!-- Generator: Adobe Illustrator 23.0.3, SVG Export Plug-In . SVG Version: 6.00 Build 0)  -->
<svg version="1.1" id="Layer_1" xmlns="http://www.w3.org/2000/svg" xmlns:xlink="http://www.w3.org/1999/xlink" x="0px" y="0px"
	 viewBox="0 0 80 80" style="enable-background:new 0 0 80 80;" xml:space="preserve">
<g>
	<g>
		<g>
			<g>
				<path d="M13,52.4c-0.1-0.1-0.2-0.2-0.4-0.3c-0.2-0.1-0.4-0.1-0.9-0.1H0.3v-0.5c1.4-0.3,1.6-0.8,1.6-2.9V38
					c0-2.1-0.2-2.6-1.6-2.9v-0.5h7.2v0.5C5.9,35.3,5.8,36,5.8,38v9.8c0,1.3,0,1.6,0.2,2c0.4,0.6,1.1,0.7,1.8,0.7
					c3.5,0,5.7-2.5,7.2-5.4l0.3,0.2L13,52.4z"/>
			</g>
			<g>
				<path d="M30.2,52.4c-0.1-0.1-0.2-0.2-0.4-0.3c-0.2-0.1-0.4-0.1-0.7-0.1H16.3v-0.5c1.4-0.3,1.6-0.8,1.6-2.9V38
					c0-2.1-0.2-2.6-1.6-2.9v-0.5h11.9c0.9,0,1.1-0.2,1.4-0.4l1.3,5.9l-0.4,0.2c-0.6-1.2-2.1-4.1-6.4-4.1c-2.1,0-2.4,0.9-2.4,2.3V40
					h2.1c2,0,2.6-0.4,2.6-2l0.4-0.1l1.1,6.5l-0.4,0.1c-0.8-1.6-1.5-2.9-4.4-2.9h-1.4v6.1c0,1.7,0.1,2.8,2.8,2.8c2.8,0,4.4-1.3,5.2-2
					c1.5-1.4,2-2.5,2.3-3l0.4,0.2L30.2,52.4z"/>
			</g>
			<g>
				<path d="M43.8,52v-0.5c0.4-0.1,1.3-0.3,1.3-1.6c0-0.6-0.2-2.1-1.9-3.4c-1.9-1.4-3.9-1.5-4.9-1.5l-1.4,3.5
					c-0.2,0.6-0.4,1.2-0.4,1.8c0,1,1,1.2,1.4,1.2V52h-5.6v-0.5c1.2-0.3,1.7-1.1,2.6-3.4l4.2-10.8c0.2-0.4,0.4-1.2,0.4-1.4
					c0-0.1,0-0.7-0.7-0.8v-0.5h6.6v0.5c-0.2,0.1-0.7,0.2-0.7,0.9c0,0.3,0.4,1.5,0.5,1.8l4,11.2c0.7,1.9,0.8,2.3,1.9,2.6V52H43.8z
					 M38.8,43c0.4,0,0.7,0,1.2,0.1c2,0.3,2.8,1,3.5,1.5l-2.6-7L38.8,43z"/>
			</g>
			<g>
				<path d="M55.6,37.5v11.1c0,2,0.1,2.7,1.7,2.9V52h-5.2v-0.5c1.4-0.3,1.6-0.8,1.6-2.9V38c0-2.1-0.2-2.6-1.6-2.9v-0.5h7.6v0.5
					c-0.8,0.2-0.6,1-0.3,1.6l2.6,4.5l2.7-4.4c0.4-0.6,0.4-0.8,0.4-1c0-0.4-0.3-0.6-0.5-0.6v-0.5h7.2v0.5c-1.4,0.3-1.6,0.8-1.6,2.9
					v10.6c0,2.1,0.2,2.6,1.6,2.9V52h-7.2v-0.5c1.5-0.2,1.7-0.9,1.7-2.9V37.5l-5.6,10.1L55.6,37.5z"/>
			</g>
		</g>
	</g>
	<g>
		<g>
			<path d="M76.8,27.5c2,0,3.5,1.6,3.5,3.5c0,1.9-1.5,3.5-3.5,3.5c-2.1,0-3.5-1.7-3.5-3.5C73.3,29.2,74.7,27.5,76.8,27.5z M76.8,34
				c1.7,0,3-1.4,3-3c0-1.7-1.3-3-3-3c-1.8,0-3,1.5-3,3S75,34,76.8,34z M78.9,32.9h-1.6v-0.2c0.1,0,0.2,0,0.2-0.2
				c0-0.2-0.2-0.5-0.3-0.8c-0.2-0.3-0.4-0.5-0.6-0.7l-0.5,0.1v0.9c0,0.4,0,0.6,0.4,0.6v0.2h-1.7v-0.2c0.3-0.1,0.4-0.1,0.4-0.6v-2.3
				c0-0.4,0-0.5-0.4-0.6v-0.2h2.4c0.3,0,1.1,0,1.1,0.6c0,0.5-0.5,0.8-0.8,1c0.3,0.4,0.7,0.8,0.9,1.5c0.2,0.5,0.3,0.5,0.5,0.5V32.9z
				 M76.2,30.7c0.4-0.1,1.2-0.3,1.2-0.8c0-0.4-0.4-0.4-0.7-0.4c-0.5,0-0.5,0.1-0.5,0.4V30.7z"/>
		</g>
	</g>
	<g>
		<path d="M27.6,29.8L27.6,29.8l-9.1,1.5l0,0c0.2,0.1,0.8,0.7,0.2,1.8l0,0l9.1-1.6l0-0.2C27.2,30.7,27.5,30,27.6,29.8z"/>
	</g>
</g>
</svg>
