<?xml version="1.0" encoding="utf-8"?>
<!-- Generator: Adobe Illustrator 23.0.3, SVG Export Plug-In . SVG Version: 6.00 Build 0)  -->
<svg version="1.1" id="Layer_1" xmlns="http://www.w3.org/2000/svg" xmlns:xlink="http://www.w3.org/1999/xlink" x="0px" y="0px"
	 viewBox="0 0 100 100" style="enable-background:new 0 0 100 100;" xml:space="preserve">
<g>
	<g>
		<g>
			<g>
				<path d="M15.9,71.6c-0.1-0.2-0.3-0.3-0.5-0.4c-0.2-0.1-0.6-0.1-1.1-0.1H0v-0.7c1.8-0.3,2-1,2-3.6V53.5c0-2.6-0.2-3.3-2-3.6v-0.7
					h9v0.7C7,50.2,6.9,51,6.9,53.5v12.3c0,1.6,0,2,0.3,2.5c0.5,0.7,1.4,0.9,2.2,0.9c4.4,0,7.1-3.2,9-6.7l0.4,0.2L15.9,71.6z"/>
			</g>
			<g>
				<path d="M37.4,71.6c-0.1-0.1-0.3-0.3-0.5-0.4c-0.2-0.1-0.5-0.2-0.8-0.2H20.1v-0.7c1.8-0.4,2-1,2-3.6V53.5c0-2.6-0.2-3.3-2-3.6
					v-0.7H35c1.2,0,1.4-0.2,1.8-0.5l1.6,7.3l-0.5,0.2c-0.7-1.4-2.7-5.1-8-5.1c-2.7,0-3,1.1-3,2.8v2h2.7c2.5,0,3.2-0.5,3.3-2.5
					l0.5-0.1l1.4,8.1l-0.5,0.1c-1-2-1.8-3.7-5.5-3.7h-1.8v7.6c0,2.1,0.1,3.5,3.4,3.5c3.5,0,5.5-1.6,6.5-2.5c1.9-1.8,2.5-3.1,2.9-3.8
					l0.5,0.2L37.4,71.6z"/>
			</g>
			<g>
				<path d="M54.4,71.1v-0.7c0.6-0.1,1.7-0.3,1.7-2c0-0.8-0.3-2.6-2.4-4.3c-2.4-1.8-4.8-1.9-6.2-1.9l-1.7,4.4
					c-0.3,0.7-0.5,1.4-0.5,2.2c0,1.3,1.2,1.5,1.8,1.5v0.7h-7v-0.7c1.5-0.4,2.1-1.3,3.2-4.2l5.3-13.5c0.2-0.5,0.5-1.5,0.5-1.8
					c0-0.1,0-0.9-0.9-1v-0.7h8.3v0.7c-0.3,0.1-0.9,0.2-0.9,1.1c0,0.3,0.5,1.9,0.6,2.3l5,14c0.9,2.3,1,2.9,2.4,3.2v0.7H54.4z
					 M48.2,59.8c0.5,0,0.9,0,1.4,0.1c2.5,0.4,3.5,1.2,4.4,1.9L50.9,53L48.2,59.8z"/>
			</g>
			<g>
				<path d="M69.2,52.9v13.8c0,2.5,0.2,3.4,2.2,3.6v0.7h-6.5v-0.7c1.8-0.4,2-1,2-3.6V53.5c0-2.6-0.2-3.3-2-3.6v-0.7h9.5v0.7
					c-0.9,0.3-0.8,1.3-0.4,2l3.3,5.6l3.4-5.5c0.5-0.8,0.6-1,0.6-1.3c0-0.6-0.4-0.7-0.6-0.8v-0.7h8.9v0.7c-1.7,0.4-2,1-2,3.6v13.3
					c0,2.7,0.2,3.3,2,3.6v0.7h-8.9v-0.7c1.9-0.3,2.1-1.1,2.1-3.6V52.9l-6.9,12.6L69.2,52.9z"/>
			</g>
		</g>
	</g>
	<g>
		<g>
			<path d="M95.6,40.4c2.4,0,4.4,2,4.4,4.4c0,2.4-1.9,4.4-4.4,4.4c-2.6,0-4.4-2.1-4.4-4.4C91.3,42.5,93,40.4,95.6,40.4z M95.6,48.5
				c2.1,0,3.8-1.7,3.8-3.8c0-2.1-1.7-3.8-3.8-3.8c-2.2,0-3.8,1.9-3.8,3.8C91.8,46.7,93.4,48.5,95.6,48.5z M98.4,47.1h-2v-0.2
				c0.1,0,0.3,0,0.3-0.2c0-0.2-0.2-0.7-0.4-1c-0.2-0.3-0.5-0.7-0.7-0.9L94.9,45v1.2c0,0.5,0,0.7,0.5,0.7v0.2h-2.1v-0.2
				c0.4-0.1,0.5-0.2,0.5-0.7v-2.8c0-0.5,0-0.7-0.5-0.7v-0.2h3c0.4,0,1.3,0,1.3,0.8c0,0.7-0.7,1-1,1.2c0.4,0.5,0.8,1,1.2,1.8
				c0.2,0.6,0.3,0.6,0.6,0.7V47.1z M94.9,44.4c0.4-0.1,1.5-0.4,1.5-1c0-0.5-0.5-0.5-0.9-0.5c-0.6,0-0.6,0.2-0.6,0.5V44.4z"/>
		</g>
	</g>
	<g>
		<path d="M34.2,43.3L34.2,43.3l-11.4,1.9l0,0c0.2,0.1,1,0.8,0.3,2.2l0,0.1l11.4-2l0-0.2C33.6,44.3,34,43.5,34.2,43.3z"/>
	</g>
</g>
</svg>
