<?xml version="1.0" encoding="utf-8"?>
<!-- Generator: Adobe Illustrator 23.0.3, SVG Export Plug-In . SVG Version: 6.00 Build 0)  -->
<svg version="1.1" id="Layer_1" xmlns="http://www.w3.org/2000/svg" xmlns:xlink="http://www.w3.org/1999/xlink" x="0px" y="0px"
	 viewBox="0 0 64 64" style="enable-background:new 0 0 64 64;" xml:space="preserve">
<g>
	<g>
		<g>
			<g>
				<path d="M10.2,43.6c-0.1-0.1-0.2-0.2-0.3-0.3c-0.1-0.1-0.4-0.1-0.7-0.1H0v-0.4c1.2-0.2,1.3-0.7,1.3-2.3v-8.5
					c0-1.7-0.1-2.1-1.3-2.3v-0.4h5.7v0.4c-1.2,0.2-1.3,0.7-1.3,2.3v7.9c0,1,0,1.3,0.2,1.6C4.9,41.9,5.4,42,6,42c2.8,0,4.5-2,5.8-4.3
					l0.3,0.1L10.2,43.6z"/>
			</g>
			<g>
				<path d="M24,43.6c-0.1-0.1-0.2-0.2-0.3-0.2s-0.3-0.1-0.5-0.1H12.8v-0.4c1.1-0.2,1.3-0.6,1.3-2.3v-8.5c0-1.7-0.1-2.1-1.3-2.3
					v-0.4h9.6c0.8,0,0.9-0.1,1.1-0.3l1,4.7l-0.3,0.1c-0.5-0.9-1.7-3.2-5.1-3.2c-1.7,0-1.9,0.7-1.9,1.8v1.3h1.7
					c1.6,0,2.1-0.3,2.1-1.6l0.3,0l0.9,5.2l-0.3,0.1c-0.6-1.3-1.2-2.3-3.5-2.3h-1.1v4.9c0,1.3,0.1,2.2,2.2,2.2c2.2,0,3.5-1,4.2-1.6
					c1.2-1.1,1.6-2,1.9-2.4l0.3,0.1L24,43.6z"/>
			</g>
			<g>
				<path d="M34.8,43.3v-0.4c0.4-0.1,1.1-0.2,1.1-1.3c0-0.5-0.2-1.7-1.6-2.7c-1.6-1.2-3.1-1.2-3.9-1.2l-1.1,2.8
					c-0.2,0.5-0.3,0.9-0.3,1.4c0,0.8,0.8,0.9,1.1,1v0.4h-4.5v-0.4c1-0.3,1.3-0.9,2.1-2.7l3.4-8.6c0.1-0.3,0.3-1,0.3-1.2
					c0-0.1,0-0.6-0.6-0.7v-0.4h5.3v0.4c-0.2,0-0.6,0.1-0.6,0.7c0,0.2,0.3,1.2,0.4,1.4l3.2,8.9c0.5,1.5,0.7,1.8,1.5,2.1v0.4H34.8z
					 M30.9,36.1c0.3,0,0.6,0,0.9,0.1c1.6,0.3,2.3,0.8,2.8,1.2l-2.1-5.6L30.9,36.1z"/>
			</g>
			<g>
				<path d="M44.3,31.7v8.8c0,1.6,0.1,2.2,1.4,2.3v0.4h-4.2v-0.4c1.1-0.2,1.3-0.6,1.3-2.3v-8.5c0-1.7-0.1-2.1-1.3-2.3v-0.4h6.1v0.4
					c-0.6,0.2-0.5,0.8-0.2,1.3l2.1,3.6l2.2-3.5c0.3-0.5,0.4-0.7,0.4-0.8c0-0.4-0.3-0.5-0.4-0.5v-0.4h5.7v0.4
					C56.2,30,56,30.4,56,32.1v8.5c0,1.7,0.1,2.1,1.3,2.3v0.4h-5.7v-0.4c1.2-0.2,1.3-0.7,1.3-2.3v-8.8l-4.4,8.1L44.3,31.7z"/>
			</g>
		</g>
	</g>
	<g>
		<g>
			<path d="M61.2,23.6c1.6,0,2.8,1.3,2.8,2.8c0,1.5-1.2,2.8-2.8,2.8c-1.6,0-2.8-1.4-2.8-2.8C58.4,25,59.5,23.6,61.2,23.6z
				 M61.2,28.9c1.4,0,2.4-1.1,2.4-2.4c0-1.3-1.1-2.4-2.4-2.4c-1.4,0-2.4,1.2-2.4,2.4C58.8,27.7,59.8,28.9,61.2,28.9z M63,27.9h-1.3
				v-0.1c0.1,0,0.2,0,0.2-0.1c0-0.1-0.1-0.4-0.3-0.6c-0.2-0.2-0.3-0.4-0.5-0.6l-0.4,0.1v0.8c0,0.3,0,0.4,0.3,0.5v0.1h-1.4v-0.1
				c0.3,0,0.3-0.1,0.3-0.5v-1.8c0-0.3,0-0.4-0.3-0.5v-0.1h1.9c0.3,0,0.8,0,0.8,0.5c0,0.4-0.4,0.7-0.6,0.8c0.3,0.3,0.5,0.7,0.8,1.2
				c0.2,0.4,0.2,0.4,0.4,0.4V27.9z M60.7,26.2c0.3-0.1,1-0.2,1-0.6c0-0.3-0.3-0.3-0.6-0.3c-0.4,0-0.4,0.1-0.4,0.3V26.2z"/>
		</g>
	</g>
	<g>
		<path d="M21.9,25.5L21.9,25.5l-7.3,1.2l0,0c0.1,0.1,0.6,0.5,0.2,1.4l0,0l7.3-1.3l0-0.1C21.5,26.2,21.8,25.7,21.9,25.5z"/>
	</g>
</g>
</svg>
