<?xml version="1.0" encoding="utf-8"?>
<!-- Generator: Adobe Illustrator 23.0.3, SVG Export Plug-In . SVG Version: 6.00 Build 0)  -->
<svg version="1.1" id="Layer_1" xmlns="http://www.w3.org/2000/svg" xmlns:xlink="http://www.w3.org/1999/xlink" x="0px" y="0px"
	 viewBox="0 0 32 32" style="enable-background:new 0 0 32 32;" xml:space="preserve">
<g>
	<g>
		<g>
			<g>
				<path d="M5.1,21.5c0-0.1-0.1-0.1-0.2-0.1c-0.1,0-0.2,0-0.4,0H0v-0.2c0.6-0.1,0.6-0.3,0.6-1.2v-4.3c0-0.8-0.1-1.1-0.6-1.2v-0.2
					h2.9v0.2c-0.6,0.1-0.7,0.4-0.7,1.2v3.9c0,0.5,0,0.7,0.1,0.8c0.1,0.2,0.4,0.3,0.7,0.3c1.4,0,2.3-1,2.9-2.2L6,18.6L5.1,21.5z"/>
			</g>
			<g>
				<path d="M12,21.5c0,0-0.1-0.1-0.1-0.1c-0.1,0-0.1-0.1-0.3-0.1H6.4v-0.2C7,21,7,20.8,7,19.9v-4.3c0-0.8-0.1-1.1-0.6-1.2v-0.2h4.8
					c0.4,0,0.5-0.1,0.6-0.2l0.5,2.4l-0.1,0.1c-0.2-0.5-0.9-1.6-2.6-1.6c-0.9,0-1,0.3-1,0.9v0.7h0.9c0.8,0,1-0.2,1.1-0.8l0.1,0
					l0.4,2.6l-0.1,0c-0.3-0.7-0.6-1.2-1.8-1.2H8.6v2.4c0,0.7,0,1.1,1.1,1.1c1.1,0,1.8-0.5,2.1-0.8c0.6-0.6,0.8-1,0.9-1.2l0.1,0.1
					L12,21.5z"/>
			</g>
			<g>
				<path d="M17.4,21.3v-0.2c0.2,0,0.5-0.1,0.5-0.6c0-0.3-0.1-0.8-0.8-1.4c-0.8-0.6-1.6-0.6-2-0.6l-0.6,1.4
					c-0.1,0.2-0.2,0.5-0.2,0.7c0,0.4,0.4,0.5,0.6,0.5v0.2h-2.2v-0.2c0.5-0.1,0.7-0.4,1-1.3l1.7-4.3c0.1-0.2,0.2-0.5,0.2-0.6
					c0,0,0-0.3-0.3-0.3v-0.2h2.7v0.2c-0.1,0-0.3,0.1-0.3,0.3c0,0.1,0.1,0.6,0.2,0.7l1.6,4.5c0.3,0.7,0.3,0.9,0.8,1v0.2H17.4z
					 M15.4,17.7c0.2,0,0.3,0,0.5,0c0.8,0.1,1.1,0.4,1.4,0.6l-1-2.8L15.4,17.7z"/>
			</g>
			<g>
				<path d="M22.2,15.5v4.4c0,0.8,0.1,1.1,0.7,1.2v0.2h-2.1v-0.2c0.6-0.1,0.6-0.3,0.6-1.2v-4.3c0-0.8-0.1-1.1-0.6-1.2v-0.2h3v0.2
					c-0.3,0.1-0.2,0.4-0.1,0.6l1.1,1.8l1.1-1.8c0.2-0.3,0.2-0.3,0.2-0.4c0-0.2-0.1-0.2-0.2-0.3v-0.2h2.9v0.2
					c-0.6,0.1-0.6,0.3-0.6,1.2v4.3c0,0.9,0.1,1.1,0.6,1.2v0.2h-2.9v-0.2c0.6-0.1,0.7-0.4,0.7-1.2v-4.4l-2.2,4.1L22.2,15.5z"/>
			</g>
		</g>
	</g>
	<g>
		<g>
			<path d="M30.6,11.5c0.8,0,1.4,0.6,1.4,1.4c0,0.8-0.6,1.4-1.4,1.4c-0.8,0-1.4-0.7-1.4-1.4C29.2,12.1,29.8,11.5,30.6,11.5z
				 M30.6,14.1c0.7,0,1.2-0.6,1.2-1.2c0-0.7-0.5-1.2-1.2-1.2c-0.7,0-1.2,0.6-1.2,1.2S29.9,14.1,30.6,14.1z M31.5,13.6h-0.7v-0.1
				c0,0,0.1,0,0.1-0.1c0-0.1-0.1-0.2-0.1-0.3c-0.1-0.1-0.2-0.2-0.2-0.3l-0.2,0v0.4c0,0.2,0,0.2,0.2,0.2v0.1h-0.7v-0.1
				c0.1,0,0.1-0.1,0.1-0.2v-0.9c0-0.2,0-0.2-0.1-0.2v-0.1h1c0.1,0,0.4,0,0.4,0.3c0,0.2-0.2,0.3-0.3,0.4c0.1,0.1,0.3,0.3,0.4,0.6
				C31.4,13.5,31.4,13.5,31.5,13.6L31.5,13.6z M30.4,12.8c0.1,0,0.5-0.1,0.5-0.3c0-0.1-0.2-0.2-0.3-0.2c-0.2,0-0.2,0-0.2,0.2V12.8z"
				/>
		</g>
	</g>
	<g>
		<path d="M10.9,12.4L10.9,12.4L7.3,13l0,0c0.1,0,0.3,0.3,0.1,0.7l0,0l3.7-0.6l0-0.1C10.7,12.7,10.9,12.5,10.9,12.4z"/>
	</g>
</g>
</svg>
